<?xml version="1.0" encoding="utf-8"?><svg viewBox="0 0 254 43" xmlns="http://www.w3.org/2000/svg" xmlns:xlink="http://www.w3.org/1999/xlink"><style>:root>svg{display:none}:root>svg:target{display:block}</style><svg viewBox="0 0 129 16" id="arrow" xmlns="http://www.w3.org/2000/svg"><path d="M.293 7.293a1 1 0 000 1.414l6.364 6.364a1 1 0 001.414-1.414L2.414 8l5.657-5.657A1 1 0 006.657.93L.293 7.293zM128.035 7H1v2h127.035V7z" fill="#00793A"/></svg><svg fill="none" viewBox="0 0 45 41" id="burger" xmlns="http://www.w3.org/2000/svg"><path fill="#00793A" d="M0 0h45v7H0zM0 17h45v7H0zM0 34h45v7H0z"/></svg><svg viewBox="0 0 254 43" id="car-logo" xmlns="http://www.w3.org/2000/svg"><path d="M19.916 24.675c-5.1 0-9.25 4.114-9.25 9.176 0 5.034 4.15 9.15 9.25 9.15 5.113 0 9.27-4.116 9.27-9.15 0-5.062-4.157-9.176-9.27-9.176zm0 14.106c-2.73 0-4.974-2.222-4.974-4.93 0-2.72 2.245-4.943 4.974-4.943 2.748 0 4.986 2.222 4.986 4.943 0 2.707-2.238 4.93-4.986 4.93zM82.245 24.675c-5.108 0-9.258 4.114-9.258 9.176 0 5.034 4.15 9.15 9.258 9.15 5.106 0 9.249-4.116 9.249-9.15 0-5.062-4.143-9.176-9.25-9.176zm0 14.106c-2.75 0-4.988-2.222-4.988-4.93 0-2.72 2.238-4.943 4.988-4.943 2.75 0 4.986 2.222 4.986 4.943 0 2.707-2.237 4.93-4.986 4.93z" fill="#00793A"/><path d="M100.214 26.989c0-8.9-5.605-9.965-5.605-9.965-8.24-1.144-22.439-1.736-22.439-1.736C70.87 13.054 64.853 0 61.352 0H30.606c-4.455 0-11.753 12.725-13.354 15.604 0 0-5.591.947-8.227 1.552-1.46.328-5.518.407-5.518 11.62H0v5.075h8.533c0-6.231 5.107-11.28 11.383-11.28 6.301 0 11.395 5.049 11.395 11.28h39.538c0-6.231 5.086-11.28 11.396-11.28 6.288 0 11.388 5.049 11.388 11.28H102v-6.862h-1.786zM45.641 14.42H27.89c2.397-7.401 6.846-12.685 8.726-12.685h9.025V14.42h-.001zm3.307 0V1.736h11.514c2.371 0 7.571 10.74 9.032 13.487l-20.546-.802z" fill="#00793A"/><path d="M125.262 14.61h-4.228l-.738 2.39H117l4.693-12.797h2.901L129.322 17h-3.313l-.747-2.39zm-3.49-2.383h2.751l-1.379-4.438-1.372 4.438zM130.324 17V7.49h4.078c1.307 0 2.306.229 2.997.686.698.457 1.046 1.116 1.046 1.977 0 .44-.152.835-.457 1.187-.304.345-.75.612-1.336.8.756.129 1.339.38 1.749.755.411.37.616.832.616 1.39 0 .896-.34 1.572-1.02 2.03-.674.45-1.646.68-2.918.685h-4.755zm2.971-3.876v1.608h1.731c.37 0 .633-.064.791-.193.159-.129.238-.325.238-.589 0-.527-.305-.802-.914-.826h-1.846zm0-1.828h1.222c.357 0 .606-.059.747-.176.146-.123.219-.302.219-.536 0-.305-.087-.519-.263-.642-.176-.123-.449-.184-.818-.184h-1.107v1.538zM148.456 9.758h-2.997V17h-2.98V9.758h-2.953V7.49h8.93v2.268zM148.931 12.157c0-.949.184-1.793.553-2.531.37-.744.9-1.315 1.591-1.714.692-.398 1.503-.598 2.435-.598 1.424 0 2.546.443 3.366 1.328.82.879 1.23 2.077 1.23 3.594v.106c0 1.482-.413 2.66-1.239 3.533-.82.867-1.933 1.3-3.34 1.3-1.353 0-2.44-.404-3.26-1.212-.821-.815-1.263-1.916-1.328-3.305l-.008-.5zm2.962.185c0 .879.137 1.523.413 1.933.275.41.682.616 1.221.616 1.055 0 1.594-.812 1.618-2.435v-.299c0-1.705-.545-2.557-1.635-2.557-.99 0-1.527.735-1.609 2.206l-.008.536zM165.779 7.754c0-.404-.158-.73-.474-.976-.311-.246-.733-.369-1.266-.369-.498 0-.899.12-1.204.36a1.125 1.125 0 00-.448.932h-3.076c0-.703.199-1.333.597-1.89.404-.556.973-.99 1.705-1.3.733-.317 1.541-.475 2.426-.475 1.523 0 2.707.32 3.551.958.849.639 1.274 1.532 1.274 2.68 0 .587-.173 1.123-.518 1.61-.34.48-.812.86-1.415 1.142.691.246 1.218.62 1.582 1.125.369.498.553 1.119.553 1.863 0 1.149-.457 2.063-1.371 2.742-.914.674-2.133 1.011-3.656 1.011-1.412 0-2.584-.331-3.516-.993-.931-.668-1.397-1.576-1.397-2.725h3.094c0 .381.17.703.509.967.34.258.777.387 1.31.387.574 0 1.04-.135 1.398-.405.357-.27.536-.62.536-1.054 0-.633-.153-1.078-.457-1.336-.305-.264-.75-.396-1.336-.396h-1.644V9.327h1.749c.996-.03 1.494-.554 1.494-1.573zM176.106 17c-.105-.193-.199-.477-.281-.852-.545.685-1.306 1.028-2.285 1.028-.896 0-1.658-.27-2.285-.809-.627-.545-.941-1.227-.941-2.048 0-1.03.381-1.81 1.143-2.338.762-.527 1.869-.79 3.322-.79h.914v-.502c0-.873-.378-1.31-1.133-1.31-.704 0-1.055.347-1.055 1.038h-2.962c0-.92.39-1.667 1.169-2.241.785-.574 1.784-.862 2.997-.862 1.213 0 2.171.296 2.874.888.703.592 1.063 1.403 1.081 2.435v4.21c.012.873.147 1.54.404 2.004V17h-2.962zm-1.854-1.934c.369 0 .674-.079.914-.237.246-.158.422-.337.527-.536v-1.52h-.861c-1.031 0-1.547.462-1.547 1.388 0 .27.091.49.273.66.181.163.413.245.694.245zM188.815 17h-2.979V9.775h-2.619V17h-2.962V7.49h8.56V17zM198.853 17h-2.98v-2.856c-.34.058-.633.087-.879.087-1.564 0-2.742-.301-3.533-.905-.785-.61-1.181-1.52-1.187-2.733V7.49h2.962v3.13c.006.515.129.866.369 1.054.241.181.704.272 1.389.272.287 0 .58-.026.879-.079V7.49h2.98V17zM205.796 17c-.106-.193-.199-.477-.281-.852-.545.685-1.307 1.028-2.286 1.028-.896 0-1.658-.27-2.285-.809-.627-.545-.94-1.227-.94-2.048 0-1.03.381-1.81 1.142-2.338.762-.527 1.87-.79 3.323-.79h.914v-.502c0-.873-.378-1.31-1.134-1.31-.703 0-1.055.347-1.055 1.038h-2.962c0-.92.39-1.667 1.169-2.241.786-.574 1.785-.862 2.997-.862 1.213 0 2.171.296 2.874.888.704.592 1.064 1.403 1.082 2.435v4.21c.011.873.146 1.54.404 2.004V17h-2.962zm-1.855-1.934c.37 0 .674-.079.914-.237.247-.158.422-.337.528-.536v-1.52h-.862c-1.031 0-1.546.462-1.546 1.388 0 .27.09.49.272.66a.996.996 0 00.694.245zM214.022 14.89c.416 0 .739-.11.967-.333.229-.229.34-.545.334-.95h2.778c0 1.043-.375 1.899-1.125 2.567-.745.668-1.705 1.002-2.883 1.002-1.383 0-2.473-.434-3.27-1.301-.797-.867-1.195-2.068-1.195-3.604v-.123c0-.96.176-1.807.527-2.54.358-.738.87-1.303 1.538-1.696.668-.398 1.459-.598 2.373-.598 1.237 0 2.218.343 2.945 1.029.726.685 1.09 1.614 1.09 2.786h-2.778c0-.492-.12-.87-.36-1.134-.24-.264-.563-.395-.967-.395-.767 0-1.216.489-1.345 1.467-.041.31-.061.739-.061 1.284 0 .955.114 1.617.343 1.986.228.37.591.554 1.089.554zM227.681 9.758h-2.997V17h-2.98V9.758h-2.953V7.49h8.93v2.268zM234.325 7.49h2.971V17h-2.971v-5.537L231.715 17h-2.98V7.49h2.98v5.52l2.61-5.52zM128.742 38h-3.085V27.585h-4.596V38h-3.085V25.203h10.766V38zM138.604 32.577h-4.852v3.05h5.73V38h-8.815V25.203h8.833v2.382h-5.748v2.698h4.852v2.294zM151.436 38h-3.068v-5.344h-4.544V38h-3.085V25.203h3.085v5.08h4.544v-5.08h3.068V38zM159.627 28.754c0-.404-.158-.73-.475-.976-.31-.246-.732-.369-1.265-.369-.498 0-.9.12-1.204.36a1.126 1.126 0 00-.449.932h-3.076c0-.703.199-1.333.598-1.89.404-.556.973-.99 1.705-1.3.732-.317 1.541-.475 2.426-.475 1.523 0 2.707.32 3.551.958.849.639 1.274 1.532 1.274 2.68 0 .587-.173 1.123-.519 1.61-.339.48-.811.86-1.415 1.142.692.246 1.219.62 1.582 1.125.369.498.554 1.119.554 1.863 0 1.148-.457 2.063-1.371 2.742-.914.674-2.133 1.011-3.656 1.011-1.412 0-2.584-.331-3.516-.993-.932-.668-1.397-1.576-1.397-2.725h3.093c0 .381.17.703.51.967.34.258.777.387 1.31.387.574 0 1.04-.135 1.397-.405.358-.27.536-.62.536-1.054 0-.633-.152-1.078-.457-1.336-.304-.264-.75-.396-1.336-.396h-1.643v-2.285h1.749c.996-.03 1.494-.554 1.494-1.573zM172.002 35.61h-4.228l-.738 2.39h-3.296l4.694-12.797h2.9L176.062 38h-3.313l-.747-2.39zm-3.489-2.383h2.751l-1.38-4.438-1.371 4.438z"/></svg><svg viewBox="0 0 254 43" id="car-logo-info" xmlns="http://www.w3.org/2000/svg"><path d="M19.916 24.675c-5.1 0-9.25 4.114-9.25 9.176 0 5.034 4.15 9.149 9.25 9.149 5.113 0 9.27-4.115 9.27-9.149 0-5.062-4.157-9.176-9.27-9.176zm0 14.106c-2.73 0-4.974-2.222-4.974-4.93 0-2.72 2.245-4.943 4.974-4.943 2.748 0 4.986 2.222 4.986 4.943 0 2.707-2.238 4.93-4.986 4.93zM82.245 24.675c-5.108 0-9.258 4.114-9.258 9.176 0 5.034 4.15 9.149 9.258 9.149 5.106 0 9.249-4.115 9.249-9.149 0-5.062-4.143-9.176-9.25-9.176zm0 14.106c-2.75 0-4.988-2.222-4.988-4.93 0-2.72 2.238-4.943 4.988-4.943 2.75 0 4.986 2.222 4.986 4.943 0 2.707-2.237 4.93-4.986 4.93z" fill="#00793A"/><path d="M100.214 26.989c0-8.9-5.605-9.965-5.605-9.965-8.24-1.144-22.439-1.736-22.439-1.736C70.87 13.054 64.853 0 61.352 0H30.606c-4.455 0-11.753 12.725-13.354 15.604 0 0-5.591.947-8.227 1.552-1.46.328-5.518.407-5.518 11.62H0v5.075h8.533c0-6.231 5.107-11.28 11.383-11.28 6.301 0 11.395 5.049 11.395 11.28h39.538c0-6.231 5.086-11.28 11.396-11.28 6.288 0 11.388 5.049 11.388 11.28H102v-6.862h-1.786zM45.641 14.42H27.89c2.397-7.401 6.846-12.685 8.726-12.685h9.025V14.42h-.001zm3.307 0V1.736h11.514c2.371 0 7.571 10.74 9.032 13.487l-20.546-.802zM125.262 14.61h-4.228l-.738 2.39H117l4.693-12.797h2.901L129.322 17h-3.313l-.747-2.39zm-3.49-2.383h2.751l-1.379-4.438-1.372 4.438zM130.324 17V7.49h4.078c1.307 0 2.306.229 2.997.686.698.457 1.046 1.116 1.046 1.977 0 .44-.152.835-.457 1.187-.304.345-.75.612-1.336.8.756.129 1.339.38 1.749.755.411.37.616.832.616 1.39 0 .896-.34 1.572-1.02 2.03-.674.45-1.646.68-2.918.685h-4.755zm2.971-3.876v1.608h1.731c.37 0 .633-.064.791-.193.159-.129.238-.325.238-.589 0-.527-.305-.802-.914-.826h-1.846zm0-1.828h1.222c.357 0 .606-.059.747-.176.146-.123.219-.302.219-.536 0-.305-.087-.519-.263-.642-.176-.123-.449-.184-.818-.184h-1.107v1.538zM148.456 9.758h-2.997V17h-2.98V9.758h-2.953V7.49h8.93v2.268zM148.931 12.157c0-.949.184-1.793.553-2.531.37-.744.9-1.315 1.591-1.714.692-.398 1.503-.598 2.435-.598 1.424 0 2.546.443 3.366 1.328.82.879 1.23 2.077 1.23 3.594v.106c0 1.482-.413 2.66-1.239 3.533-.82.867-1.933 1.3-3.34 1.3-1.353 0-2.44-.404-3.26-1.212-.821-.815-1.263-1.916-1.328-3.305l-.008-.5zm2.962.185c0 .879.137 1.523.413 1.933.275.41.682.616 1.221.616 1.055 0 1.594-.812 1.618-2.435v-.299c0-1.705-.545-2.557-1.635-2.557-.99 0-1.527.735-1.609 2.206l-.008.536zM165.779 7.754c0-.404-.158-.73-.474-.976-.311-.246-.733-.369-1.266-.369-.498 0-.899.12-1.204.36a1.125 1.125 0 00-.448.932h-3.076c0-.703.199-1.333.597-1.89.404-.556.973-.99 1.705-1.3.733-.317 1.541-.475 2.426-.475 1.523 0 2.707.32 3.551.958.849.639 1.274 1.532 1.274 2.68 0 .587-.173 1.123-.518 1.61-.34.48-.812.86-1.415 1.142.691.246 1.218.62 1.582 1.125.369.498.553 1.119.553 1.863 0 1.149-.457 2.063-1.371 2.742-.914.674-2.133 1.011-3.656 1.011-1.412 0-2.584-.331-3.516-.993-.931-.668-1.397-1.576-1.397-2.725h3.094c0 .381.17.703.509.967.34.258.777.387 1.31.387.574 0 1.04-.135 1.398-.405.357-.27.536-.62.536-1.054 0-.633-.153-1.078-.457-1.336-.305-.264-.75-.396-1.336-.396h-1.644V9.327h1.749c.996-.03 1.494-.554 1.494-1.573zM176.106 17c-.105-.193-.199-.477-.281-.852-.545.685-1.306 1.028-2.285 1.028-.896 0-1.658-.27-2.285-.809-.627-.545-.941-1.227-.941-2.048 0-1.03.381-1.81 1.143-2.338.762-.527 1.869-.79 3.322-.79h.914v-.502c0-.873-.378-1.31-1.133-1.31-.704 0-1.055.347-1.055 1.038h-2.962c0-.92.39-1.667 1.169-2.241.785-.574 1.784-.862 2.997-.862 1.213 0 2.171.296 2.874.888.703.592 1.063 1.403 1.081 2.435v4.21c.012.873.147 1.54.404 2.004V17h-2.962zm-1.854-1.934c.369 0 .674-.079.914-.237.246-.158.422-.337.527-.536v-1.52h-.861c-1.031 0-1.547.462-1.547 1.388 0 .27.091.49.273.66.181.163.413.245.694.245zM188.815 17h-2.979V9.775h-2.619V17h-2.962V7.49h8.56V17zM198.853 17h-2.98v-2.856c-.34.058-.633.087-.879.087-1.564 0-2.742-.301-3.533-.905-.785-.61-1.181-1.52-1.187-2.733V7.49h2.962v3.13c.006.515.129.866.369 1.054.241.181.704.272 1.389.272.287 0 .58-.026.879-.079V7.49h2.98V17zM205.796 17c-.106-.193-.199-.477-.281-.852-.545.685-1.307 1.028-2.286 1.028-.896 0-1.658-.27-2.285-.809-.627-.545-.94-1.227-.94-2.048 0-1.03.381-1.81 1.142-2.338.762-.527 1.87-.79 3.323-.79h.914v-.502c0-.873-.378-1.31-1.134-1.31-.703 0-1.055.347-1.055 1.038h-2.962c0-.92.39-1.667 1.169-2.241.786-.574 1.785-.862 2.997-.862 1.213 0 2.171.296 2.874.888.704.592 1.064 1.403 1.082 2.435v4.21c.011.873.146 1.54.404 2.004V17h-2.962zm-1.855-1.934c.37 0 .674-.079.914-.237.247-.158.422-.337.528-.536v-1.52h-.862c-1.031 0-1.546.462-1.546 1.388 0 .27.09.49.272.66a.996.996 0 00.694.245zM214.022 14.89c.416 0 .739-.11.967-.333.229-.229.34-.545.334-.95h2.778c0 1.043-.375 1.899-1.125 2.567-.745.668-1.705 1.002-2.883 1.002-1.383 0-2.473-.434-3.27-1.301-.797-.867-1.195-2.068-1.195-3.604v-.123c0-.96.176-1.807.527-2.54.358-.738.87-1.303 1.538-1.696.668-.398 1.459-.598 2.373-.598 1.237 0 2.218.343 2.945 1.029.726.685 1.09 1.614 1.09 2.786h-2.778c0-.492-.12-.87-.36-1.134-.24-.264-.563-.395-.967-.395-.767 0-1.216.489-1.345 1.467-.041.31-.061.739-.061 1.284 0 .955.114 1.617.343 1.986.228.37.591.554 1.089.554zM227.681 9.758h-2.997V17h-2.98V9.758h-2.953V7.49h8.93v2.268zM234.325 7.49h2.971V17h-2.971v-5.537L231.715 17h-2.98V7.49h2.98v5.52l2.61-5.52zM128.742 38h-3.085V27.585h-4.596V38h-3.085V25.203h10.766V38zM138.604 32.577h-4.852v3.05h5.73V38h-8.815V25.203h8.833v2.382h-5.748v2.698h4.852v2.294zM151.436 38h-3.068v-5.344h-4.544V38h-3.085V25.203h3.085v5.08h4.544v-5.08h3.068V38zM159.627 28.754c0-.404-.158-.73-.475-.976-.31-.246-.732-.369-1.265-.369-.498 0-.9.12-1.204.36a1.126 1.126 0 00-.449.932h-3.076c0-.703.199-1.333.598-1.89.404-.556.973-.99 1.705-1.3.732-.317 1.541-.475 2.426-.475 1.523 0 2.707.32 3.551.958.849.639 1.274 1.532 1.274 2.68 0 .587-.173 1.123-.519 1.61-.339.48-.811.86-1.415 1.142.692.246 1.219.62 1.582 1.125.369.498.554 1.119.554 1.863 0 1.148-.457 2.063-1.371 2.742-.914.674-2.133 1.011-3.656 1.011-1.412 0-2.584-.331-3.516-.993-.932-.668-1.397-1.576-1.397-2.725h3.093c0 .381.17.703.51.967.34.258.777.387 1.31.387.574 0 1.04-.135 1.397-.405.358-.27.536-.62.536-1.054 0-.633-.152-1.078-.457-1.336-.304-.264-.75-.396-1.336-.396h-1.643v-2.285h1.749c.996-.03 1.494-.554 1.494-1.573zM172.002 35.61h-4.228l-.738 2.39h-3.296l4.694-12.797h2.9L176.062 38h-3.313l-.747-2.39zm-3.489-2.383h2.751l-1.38-4.438-1.371 4.438z" fill="#fff"/></svg><svg viewBox="0 0 37 37" id="close" xmlns="http://www.w3.org/2000/svg"><path fill="#00793A" d="M.115 31.935L31.935.115l4.95 4.95-31.82 31.82z"/><path fill="#00793A" d="M4.95 0l31.82 31.82-4.95 4.95L0 4.95z"/></svg><svg viewBox="0 0 28 28" id="instagram" xmlns="http://www.w3.org/2000/svg"><path fill-rule="evenodd" clip-rule="evenodd" d="M12 28C5.373 28 0 22.627 0 16v-4C0 5.373 5.373 0 12 0h4c6.627 0 12 5.373 12 12v4c0 6.627-5.373 12-12 12h-4zM10.419 6h7.162a4.429 4.429 0 013.125 1.297A4.417 4.417 0 0122 10.42v7.167a4.417 4.417 0 01-1.296 3.118A4.429 4.429 0 0117.58 22H10.42a4.429 4.429 0 01-3.123-1.295A4.417 4.417 0 016 17.587V10.42c0-1.171.465-2.294 1.294-3.123A4.429 4.429 0 0110.419 6zM19.7 19.702c.563-.56.88-1.321.882-2.115V10.42a3.003 3.003 0 00-3.002-2.998H10.42a3.01 3.01 0 00-3.002 2.998v7.167a2.996 2.996 0 003.002 2.99h7.162c.795 0 1.558-.314 2.12-.875zM14.007 10a4 4 0 10-.014 8 4 4 0 00.014-8zm0 6.615a2.622 2.622 0 110-5.244 2.622 2.622 0 010 5.244zm3.287-7.322c.188-.188.443-.293.71-.293.265.006.52.113.708.3a1.012 1.012 0 010 1.413 1.038 1.038 0 01-.709.287A1.005 1.005 0 0117 10c0-.265.106-.52.294-.707z"/></svg><svg viewBox="0 0 19 19" id="phone" xmlns="http://www.w3.org/2000/svg"><path d="M18.96 14.722c-.054-.162-.396-.4-1.026-.715-.17-.1-.414-.234-.728-.405-.315-.171-.6-.329-.857-.473a29.207 29.207 0 01-.722-.418 17.675 17.675 0 00-.337-.236 3.798 3.798 0 00-.48-.29.884.884 0 00-.384-.095c-.18 0-.405.129-.675.385s-.517.535-.742.837c-.225.301-.463.58-.715.836-.252.257-.459.385-.62.385a.916.916 0 01-.304-.067 3.144 3.144 0 01-.277-.115 5.007 5.007 0 01-.324-.19 8.252 8.252 0 00-.256-.154c-1.233-.684-2.29-1.467-3.171-2.348-.882-.882-1.664-1.94-2.348-3.172a7.843 7.843 0 00-.155-.256 4.862 4.862 0 01-.19-.324 2.924 2.924 0 01-.114-.277.913.913 0 01-.067-.303c0-.162.128-.369.384-.621.257-.252.536-.49.837-.715.301-.225.58-.472.836-.742.257-.27.385-.495.385-.675a.881.881 0 00-.094-.384 3.75 3.75 0 00-.29-.48l-.237-.337a29.617 29.617 0 01-.418-.721 68.053 68.053 0 01-.472-.857c-.171-.315-.306-.558-.405-.729C4.679.436 4.44.094 4.279.041A.756.756 0 003.995 0c-.243 0-.56.045-.951.135-.391.09-.7.184-.924.283-.45.19-.927.738-1.43 1.646C.23 2.91 0 3.747 0 4.574c0 .243.016.479.047.709.032.229.088.488.17.776.08.287.145.501.195.64.049.14.141.39.276.75.135.36.216.58.243.66.315.882.688 1.67 1.12 2.362.71 1.152 1.68 2.341 2.908 3.57 1.228 1.227 2.417 2.197 3.569 2.907.693.432 1.48.805 2.361 1.12.082.027.302.108.662.243.36.135.61.228.748.277.14.05.354.115.641.196.288.081.547.137.776.169.23.031.466.047.709.047.827 0 1.664-.23 2.51-.688.908-.504 1.457-.98 1.645-1.43.1-.226.194-.534.284-.925.09-.391.135-.708.135-.951a.755.755 0 00-.04-.284z"/></svg><svg viewBox="0 0 17 23" id="pin" xmlns="http://www.w3.org/2000/svg"><path d="M13.92 2.246C12.424.749 10.617 0 8.5 0S4.577.749 3.08 2.246C1.582 3.743.833 5.55.833 7.666c0 1.089.165 1.982.494 2.681l5.466 11.59c.15.33.382.589.696.778.315.19.652.285 1.011.285.36 0 .697-.095 1.011-.285.315-.19.551-.449.711-.778l5.45-11.59c.33-.699.495-1.592.495-2.68 0-2.117-.749-3.923-2.246-5.42zm-2.71 8.13A3.693 3.693 0 018.5 11.5a3.694 3.694 0 01-2.71-1.123 3.693 3.693 0 01-1.123-2.71c0-1.059.374-1.962 1.123-2.71A3.694 3.694 0 018.5 3.832c1.058 0 1.962.375 2.71 1.123a3.693 3.693 0 011.123 2.71 3.694 3.694 0 01-1.123 2.71z"/></svg><svg viewBox="0 0 22 22" id="time" xmlns="http://www.w3.org/2000/svg"><circle cx="11" cy="11" r="10" fill="#fff"/><path d="M11 0C4.935 0 0 4.935 0 11s4.935 11 11 11 11-4.935 11-11S17.065 0 11 0zm0 21.267C5.339 21.267.733 16.66.733 11S5.34.733 11 .733 21.267 5.34 21.267 11 16.66 21.267 11 21.267z" fill="#333"/><path d="M11 3v9H3" stroke="#333" stroke-width="1.5"/></svg><svg viewBox="0 0 28 28" id="viber" xmlns="http://www.w3.org/2000/svg"><path fill-rule="evenodd" clip-rule="evenodd" d="M12 28C5.373 28 0 22.627 0 16v-4C0 5.373 5.373 0 12 0h4c6.627 0 12 5.373 12 12v4c0 6.627-5.373 12-12 12h-4zm9.287-22.952c1.673 1.505 2.6 4.835 1.974 10.108-.549 4.653-3.685 5.477-4.738 5.754-.103.027-.187.049-.245.069-.285.094-2.787.742-6.046.46l-.324.387c-1.659 1.984-1.944 2.326-2.534 2.135-.548-.173-.516-1.03-.516-1.03l.005-2.117h-.005c-4.76-1.386-4.694-6.495-4.638-9.222.056-2.727.567-4.93 2.018-6.43 3.23-3.068 12.35-2.687 15.05-.115h-.001zM9.85 23.188c.64-.668 2.703-3.24 2.703-3.24 2.764.186 4.964-.38 5.201-.46.056-.018.135-.037.234-.061.897-.216 3.39-.818 3.85-4.658 0-.02.006-.087.017-.196.11-1.104.64-6.452-1.626-8.461-2.037-1.915-10.032-2.509-12.866.148-1.229 1.256-1.645 3.12-1.689 5.397l-.005.242c-.05 2.33-.138 6.425 3.76 7.542 0 0-.016 3.23-.016 3.514-.004.43.227.45.437.233zM13.694 6.76c-.337 0-.337.525 0 .53 2.614.02 4.766 1.841 4.79 5.183 0 .352.516.348.512-.005-.029-3.6-2.38-5.688-5.302-5.708zm3.95 5.171c-.004.353-.52.336-.512-.012.04-1.739-1.01-3.1-3.005-3.252-.336-.024-.301-.553.035-.529 2.3.172 3.525 1.808 3.482 3.793zm-1.063 2.246c-.432-.25-.872-.094-1.054.152l-.38.492c-.194.25-.556.217-.556.217-2.637-.697-3.342-3.457-3.342-3.457s-.033-.373.209-.574l.476-.393c.238-.19.388-.645.146-1.092a9.65 9.65 0 00-1.102-1.627 5.032 5.032 0 01-.202-.256c-.232-.291-.582-.357-.946-.16h-.008c-.757.443-1.586 1.272-1.32 2.125.078.156.168.37.276.631.519 1.242 1.466 3.511 3.656 5.302 1.246 1.025 3.216 2.075 4.053 2.317l.007.012c.825.275 1.626-.586 2.054-1.366v-.006c.19-.377.127-.734-.15-.967-.492-.48-1.234-1.01-1.817-1.35zm-.766-2.696c-.043-.902-.451-1.341-1.292-1.39-.34-.02-.309-.55.028-.53 1.106.062 1.72.718 1.776 1.896.016.352-.496.377-.512.024z"/></svg><svg viewBox="0 0 28 28" id="whatsapp" xmlns="http://www.w3.org/2000/svg"><path fill-rule="evenodd" clip-rule="evenodd" d="M12 28C5.373 28 0 22.627 0 16v-4C0 5.373 5.373 0 12 0h4c6.627 0 12 5.373 12 12v4c0 6.627-5.373 12-12 12h-4zm2.136-22.4a8.43 8.43 0 015.987 2.47 8.352 8.352 0 012.477 5.96c-.002 4.645-3.8 8.424-8.464 8.424h-.004a8.486 8.486 0 01-4.045-1.025L5.6 22.6l1.2-4.365a8.378 8.378 0 01-1.129-4.212C5.673 9.38 9.47 5.6 14.136 5.6zm-.003 15.431h.003c3.877 0 7.033-3.14 7.035-7.001 0-1.871-.73-3.63-2.059-4.954a7.004 7.004 0 00-4.974-2.053c-3.88 0-7.036 3.14-7.038 7a6.96 6.96 0 001.076 3.727l.167.265-.71 2.584 2.662-.695.257.151a7.053 7.053 0 003.58.976zm2.416-5.928c.194.07 1.234.579 1.446.684l.116.057c.147.07.246.119.289.19.053.087.053.509-.123 1-.177.492-1.022.94-1.428 1.001a2.914 2.914 0 01-1.332-.083 12.152 12.152 0 01-1.206-.444c-1.982-.852-3.322-2.764-3.576-3.126a2.303 2.303 0 00-.037-.052l-.002-.002c-.112-.15-.861-1.145-.861-2.175 0-.97.478-1.478.698-1.712l.042-.044a.779.779 0 01.564-.264c.14 0 .282.002.405.008h.047c.124 0 .277-.001.429.36l.232.561c.182.442.384.932.42 1.003.053.105.088.228.018.369-.07.14-.3.437-.529.72l-.03.036c-.087.102-.173.204-.063.393.124.21.548.9 1.177 1.458.676.6 1.263.854 1.561.982.058.026.105.046.14.063.211.105.334.088.458-.053.123-.14.528-.614.67-.825.14-.21.282-.176.475-.105z"/></svg></svg>